<?xml version="1.0" standalone="no"?>
<!DOCTYPE svg PUBLIC "-//W3C//DTD SVG 20010904//EN"
 "http://www.w3.org/TR/2001/REC-SVG-20010904/DTD/svg10.dtd">
<svg version="1.0" xmlns="http://www.w3.org/2000/svg"
 width="512.000000pt" height="512.000000pt" viewBox="0 0 512.000000 512.000000"
 preserveAspectRatio="xMidYMid meet">
<metadata>
Created by potrace 1.14, written by Peter Selinger 2001-2017
</metadata>
<g transform="translate(0.000000,512.000000) scale(0.100000,-0.100000)"
fill="#000000" stroke="none">
<path d="M1168 4140 c-22 -7 -251 -123 -413 -210 -28 -15 -118 -62 -200 -105
-183 -94 -212 -113 -226 -146 -12 -31 -6 -83 12 -105 20 -24 60 -41 114 -48
83 -10 136 -16 215 -27 103 -14 126 -16 195 -25 70 -8 96 -12 101 -17 3 -3
-145 -565 -208 -787 -26 -92 -31 -179 -14 -228 8 -20 51 -100 96 -177 46 -77
104 -175 129 -218 25 -43 53 -91 62 -106 9 -15 71 -121 139 -237 67 -115 126
-213 130 -218 8 -8 -8 -65 -30 -111 -25 -53 -120 -318 -120 -336 0 -29 44 -69
76 -69 22 0 761 260 1079 379 l70 26 1095 5 1095 5 36 24 c57 39 73 72 138
283 74 235 73 273 -2 318 -40 25 -65 25 -171 0 -46 -11 -99 -22 -118 -25 -18
-3 -53 -11 -78 -16 -25 -6 -54 -12 -65 -15 -11 -2 -55 -11 -97 -19 l-77 -16
-68 52 c-57 44 -231 180 -283 222 -8 7 -33 26 -55 44 -69 54 -209 164 -225
176 -61 49 -249 196 -271 212 -15 11 -119 92 -231 181 -394 311 -543 426 -579
444 -60 31 -137 21 -242 -30 -48 -23 -90 -40 -93 -37 -4 3 -6 146 -5 317 1
193 -3 326 -9 351 -6 21 -26 55 -45 73 -37 38 -76 51 -355 125 -85 22 -182 48
-215 56 -173 47 -226 53 -287 35z"/>
</g>
</svg>
