<?xml version="1.0" standalone="no"?>
<!DOCTYPE svg PUBLIC "-//W3C//DTD SVG 20010904//EN"
 "http://www.w3.org/TR/2001/REC-SVG-20010904/DTD/svg10.dtd">
<svg version="1.0" xmlns="http://www.w3.org/2000/svg"
 width="368.000000pt" height="368.000000pt" viewBox="0 0 368.000000 368.000000"
 preserveAspectRatio="xMidYMid meet">
<metadata>
Created by potrace 1.14, written by Peter Selinger 2001-2017
</metadata>
<g transform="translate(0.000000,368.000000) scale(0.100000,-0.100000)"
fill="#000000" stroke="none">
<path d="M2264 3575 c-49 -24 -106 -59 -128 -77 -56 -48 -189 -212 -341 -423
-28 -39 -98 -175 -180 -350 -106 -227 -93 -209 -150 -213 -97 -6 -279 -54
-355 -93 -19 -10 -51 -33 -71 -51 -59 -53 -76 -66 -109 -83 -17 -9 -41 -32
-52 -51 -11 -19 -30 -36 -42 -38 -11 -2 -45 -9 -74 -15 -30 -6 -68 -11 -85
-11 -31 0 -138 -36 -205 -68 -44 -21 -50 -51 -20 -103 33 -59 90 -96 219 -140
102 -35 114 -41 126 -70 7 -17 13 -39 13 -49 0 -29 98 -158 148 -195 42 -30
100 -53 252 -97 l45 -13 -3 -59 c-1 -33 2 -84 8 -115 6 -31 13 -65 14 -76 1
-11 11 -44 20 -73 10 -29 19 -74 20 -100 2 -26 8 -65 14 -87 68 -249 80 -300
86 -385 6 -86 79 -308 106 -325 6 -4 10 -14 9 -23 -5 -51 1 -61 39 -71 20 -6
59 -12 85 -15 l49 -5 19 42 c10 23 19 52 19 65 0 30 24 28 46 -5 53 -82 163
-153 238 -153 93 0 110 19 121 136 3 37 7 69 9 71 1 2 21 -6 44 -17 92 -44
212 -51 254 -14 11 11 31 41 44 68 26 54 26 74 -2 236 -9 52 -7 43 -22 96 -23
81 -33 151 -37 284 -3 74 -7 149 -9 165 -4 26 -15 165 -21 250 -3 45 2 50 51
52 26 2 71 12 102 23 30 12 61 19 69 16 47 -18 4 74 -69 151 l-41 42 44 11
c24 6 64 18 88 25 25 8 63 15 85 15 23 0 47 4 55 9 24 15 -14 91 -75 151 -30
29 -51 56 -47 60 5 4 27 12 50 19 37 10 152 97 161 121 6 17 -66 71 -163 121
-122 64 -132 73 -106 91 10 7 31 36 46 63 15 28 34 57 41 66 8 8 14 20 14 25
0 10 36 82 95 189 18 33 49 92 70 130 21 39 57 99 80 135 24 36 55 100 69 143
14 43 46 117 71 163 25 46 45 93 45 103 0 11 -10 32 -23 46 -20 24 -30 27 -88
27 -72 1 -209 -35 -323 -83 -38 -16 -71 -28 -73 -26 -2 2 4 23 12 47 27 77 15
166 -23 171 -4 0 -15 2 -25 4 -10 2 -36 -3 -57 -10 -46 -16 -57 -3 -36 46 17
39 0 93 -38 126 -43 37 -98 31 -202 -22z"/>
</g>
</svg>
